<?xml version="1.0" standalone="no"?>
<!DOCTYPE svg PUBLIC "-//W3C//DTD SVG 20010904//EN"
 "http://www.w3.org/TR/2001/REC-SVG-20010904/DTD/svg10.dtd">
<svg version="1.0" xmlns="http://www.w3.org/2000/svg"
 width="512.000000pt" height="512.000000pt" viewBox="0 0 512.000000 512.000000"
 preserveAspectRatio="xMidYMid meet">
<metadata>
Created by potrace 1.14, written by Peter Selinger 2001-2017
</metadata>
<g transform="translate(0.000000,512.000000) scale(0.100000,-0.100000)"
fill="#000000" stroke="none">
<path d="M3186 4933 l-36 -108 -70 -22 c-38 -12 -103 -38 -144 -58 -41 -19
-77 -35 -81 -35 -4 0 -47 20 -97 45 -50 25 -94 45 -98 45 -9 0 -420 -408 -420
-416 0 -3 20 -48 45 -101 25 -52 45 -99 45 -104 0 -5 -13 -33 -29 -62 -16 -28
-41 -88 -56 -132 -16 -44 -33 -86 -39 -92 -6 -7 -43 -22 -83 -34 l-71 -22 -44
30 c-105 71 -357 174 -458 187 -19 2 -57 8 -85 13 -89 15 -323 9 -410 -11
-318 -70 -579 -265 -734 -548 -50 -91 -105 -253 -128 -378 -2 -14 -15 -70 -29
-125 -65 -261 -85 -370 -80 -422 8 -75 41 -137 101 -191 l53 -47 4 -261 3
-260 37 -75 c45 -90 104 -149 190 -189 77 -35 106 -39 276 -40 l132 0 0 -253
0 -253 -180 -72 c-215 -87 -280 -123 -369 -208 -156 -147 -236 -324 -248 -546
l-5 -108 1202 0 1202 0 -3 246 -3 246 36 19 c70 36 128 127 128 203 0 85 -62
188 -130 216 l-30 12 0 152 0 151 108 88 c59 48 121 99 138 115 18 15 77 65
133 111 l101 84 0 219 0 218 -80 0 -80 0 0 -184 c0 -182 0 -184 -24 -199 -13
-9 -29 -22 -37 -29 -8 -7 -41 -35 -74 -63 -33 -27 -65 -54 -71 -60 -6 -5 -71
-59 -143 -119 l-131 -109 0 -187 0 -188 -30 -12 c-29 -12 -33 -11 -63 16 -17
16 -34 32 -37 35 -10 13 -129 86 -159 99 l-31 12 0 194 0 193 83 62 c209 158
388 395 467 619 13 36 25 67 27 69 1 2 13 -7 25 -20 51 -55 50 -55 153 -5 l96
47 117 -50 c64 -27 129 -53 144 -56 34 -9 47 -30 81 -137 l28 -88 110 0 109 0
0 -489 0 -489 -30 -12 c-44 -18 -105 -92 -120 -144 -14 -51 -7 -129 15 -172
38 -74 133 -134 212 -134 124 0 243 115 243 234 0 85 -62 188 -130 216 l-30
12 0 489 0 489 109 0 109 0 32 98 c18 53 37 102 44 108 6 6 40 21 76 34 36 12
97 38 137 56 39 19 75 34 80 34 5 0 48 -20 96 -45 48 -25 92 -45 97 -45 12 0
420 408 420 420 0 5 -20 49 -45 97 -25 48 -45 91 -45 96 0 4 15 40 34 80 18
40 44 101 56 137 13 36 28 70 34 76 6 7 55 26 109 44 l97 32 0 297 0 298 -82
27 c-46 15 -90 30 -98 34 -8 3 -18 5 -21 4 -4 -1 -19 33 -34 76 -15 42 -43
109 -61 149 -19 39 -34 74 -34 78 0 3 20 47 45 97 25 50 45 95 45 99 0 5 -93
101 -206 214 -173 173 -209 205 -227 199 -12 -3 -57 -24 -100 -46 l-78 -41
-77 36 c-42 19 -106 45 -142 57 -36 13 -70 28 -76 34 -6 6 -26 55 -44 109
l-33 97 -298 0 -297 0 -36 -107z"/>
<path d="M4080 1942 l0 -219 113 -94 c61 -51 121 -101 132 -110 85 -72 161
-135 170 -142 5 -4 22 -18 38 -32 l27 -24 0 -150 c0 -142 -1 -150 -21 -156
-45 -15 -112 -91 -127 -145 -23 -86 -6 -161 50 -225 53 -60 97 -80 178 -80
162 0 268 137 230 297 -11 43 -23 63 -67 105 -30 29 -60 53 -68 53 -13 0 -15
30 -15 189 l0 189 -161 134 c-89 73 -175 145 -193 161 -17 15 -52 44 -78 64
l-48 37 0 183 0 183 -80 0 -80 0 0 -218z"/>
<path d="M3120 1660 l0 -179 -147 -112 c-81 -61 -153 -114 -160 -116 -10 -4
-13 -82 -13 -358 l0 -353 -30 -12 c-65 -27 -130 -129 -130 -204 0 -102 79
-209 173 -235 103 -29 215 15 272 108 38 61 41 163 7 228 -21 41 -98 113 -121
113 -8 0 -11 83 -11 310 l0 310 160 120 160 120 0 220 0 220 -80 0 -80 0 0
-180z"/>
<path d="M3760 1620 l0 -219 158 -119 157 -118 3 -311 c2 -305 2 -312 -18
-318 -31 -10 -79 -54 -106 -97 -95 -150 28 -358 212 -358 57 0 109 24 160 75
65 65 85 131 65 219 -14 62 -71 135 -121 156 l-30 12 0 349 0 349 -160 120
-160 120 0 180 0 180 -80 0 -80 0 0 -220z"/>
</g>
</svg>
